# xmcd
#
# Track frame offsets:
#	150
#	67260
#	98067
#	120087
#	206900
#	231420
#	250772
#
# Disc length: 4031 seconds
#
# Revision: 6
# Processed by: cddbd v1.5.2PL0 Copyright (c) Steve Scherf et al.
# Submitted via: audiograbber 1.83.01
#
DISCID=5f0fbd07
DTITLE=Miles Davis - The Complete In A Silent Way Sessions - Disc 2
DYEAR=1969
DGENRE=Jazz
TTITLE0=Ascent
TTITLE1=Directions I
TTITLE2=Directions II
TTITLE3=Shhh - Peaceful
TTITLE4=In A Silent Way (rehearsal)
TTITLE5=In A Silent Way
TTITLE6=It's About That Time
EXTD=
EXTT0=
EXTT1=
EXTT2=
EXTT3=
EXTT4=
EXTT5=
EXTT6=
PLAYORDER=
